<svg xmlns="http://www.w3.org/2000/svg" width="1600" height="520" viewBox="0 0 1600 520" role="img" aria-labelledby="title desc">
  <title id="title">PESMaker potential energy surface banner</title>
  <desc id="desc">A clean banner showing PESMaker selecting representative points on a potential energy surface.</desc>
  <defs>
    <linearGradient id="background" x1="0" x2="1" y1="0" y2="1">
      <stop offset="0" stop-color="#fbfdff"/>
      <stop offset="1" stop-color="#edf7ff"/>
    </linearGradient>
    <linearGradient id="titleBlue" x1="0" x2="1" y1="0" y2="0">
      <stop offset="0" stop-color="#2438ff"/>
      <stop offset="0.58" stop-color="#1477e8"/>
      <stop offset="1" stop-color="#00a6c8"/>
    </linearGradient>
    <linearGradient id="surface" x1="0.06" x2="0.96" y1="0.02" y2="0.98">
      <stop offset="0" stop-color="#fff6a8"/>
      <stop offset="0.24" stop-color="#ffd33d"/>
      <stop offset="0.48" stop-color="#ff7a2f"/>
      <stop offset="0.72" stop-color="#6f55cb"/>
      <stop offset="1" stop-color="#1769d8"/>
    </linearGradient>
    <radialGradient id="atomBlue" cx="35%" cy="25%" r="70%">
      <stop offset="0" stop-color="#f2fbff"/>
      <stop offset="0.42" stop-color="#65d7ff"/>
      <stop offset="1" stop-color="#1769d8"/>
    </radialGradient>
    <radialGradient id="atomRed" cx="35%" cy="25%" r="70%">
      <stop offset="0" stop-color="#fff7ec"/>
      <stop offset="0.42" stop-color="#ffbd55"/>
      <stop offset="1" stop-color="#e33a23"/>
    </radialGradient>
    <radialGradient id="atomGreen" cx="35%" cy="25%" r="70%">
      <stop offset="0" stop-color="#f8ffef"/>
      <stop offset="0.42" stop-color="#a6e85f"/>
      <stop offset="1" stop-color="#22a75a"/>
    </radialGradient>
    <filter id="surfaceShadow" x="-18%" y="-18%" width="136%" height="145%">
      <feDropShadow dx="0" dy="22" stdDeviation="24" flood-color="#08265d" flood-opacity="0.18"/>
    </filter>
    <filter id="softShadow" x="-25%" y="-25%" width="150%" height="150%">
      <feDropShadow dx="0" dy="8" stdDeviation="7" flood-color="#08265d" flood-opacity="0.22"/>
    </filter>
  </defs>

  <rect width="1600" height="520" fill="url(#background)"/>
  <circle cx="1370" cy="92" r="190" fill="#dff7ff" opacity="0.68"/>
  <circle cx="182" cy="438" r="230" fill="#eef3ff" opacity="0.9"/>

  <g transform="translate(82 100)">
    <text x="0" y="0" font-family="Inter, Segoe UI, Arial, sans-serif" font-size="112" font-weight="850" fill="url(#titleBlue)">PESMaker</text>
    <text x="4" y="66" font-family="Inter, Segoe UI, Arial, sans-serif" font-size="40" font-weight="650" fill="#17335f">Potential Energy Surface Maker</text>
    <text x="4" y="126" font-family="Inter, Segoe UI, Arial, sans-serif" font-size="31" fill="#2e466b">From structures to DFT-labeled MLIP data.</text>

    <g transform="translate(2 186)" opacity="0.98">
      <rect x="0" y="0" width="142" height="58" rx="18" fill="#ffffff" stroke="#b9d3ff" stroke-width="3"/>
      <text x="71" y="37" text-anchor="middle" font-family="Inter, Segoe UI, Arial, sans-serif" font-size="23" font-weight="750" fill="#17335f">Structures</text>
      <path d="M158 29 H196" stroke="#17335f" stroke-width="6" stroke-linecap="round"/>
      <path d="M196 29 l-16 -12 v24 z" fill="#17335f"/>

      <rect x="214" y="0" width="106" height="58" rx="18" fill="#e9f8ff" stroke="#62c7ef" stroke-width="3"/>
      <text x="267" y="37" text-anchor="middle" font-family="Inter, Segoe UI, Arial, sans-serif" font-size="23" font-weight="800" fill="#13639a">next</text>
      <path d="M336 29 H374" stroke="#17335f" stroke-width="6" stroke-linecap="round"/>
      <path d="M374 29 l-16 -12 v24 z" fill="#17335f"/>

      <rect x="392" y="0" width="96" height="58" rx="18" fill="#fff3df" stroke="#ffb154" stroke-width="3"/>
      <text x="440" y="37" text-anchor="middle" font-family="Inter, Segoe UI, Arial, sans-serif" font-size="23" font-weight="750" fill="#8f3c11">DFT</text>
      <path d="M504 29 H542" stroke="#17335f" stroke-width="6" stroke-linecap="round"/>
      <path d="M542 29 l-16 -12 v24 z" fill="#17335f"/>

      <rect x="560" y="0" width="126" height="58" rx="18" fill="#eefbea" stroke="#84d66f" stroke-width="3"/>
      <text x="623" y="37" text-anchor="middle" font-family="Inter, Segoe UI, Arial, sans-serif" font-size="23" font-weight="750" fill="#27723e">Dataset</text>
    </g>
  </g>

  <g transform="translate(650 76)" filter="url(#surfaceShadow)">
    <path d="M58 310 C120 252 170 342 240 286 C306 234 358 154 430 202 C494 244 548 246 620 176 C682 116 746 152 828 92 L828 356 C768 418 696 388 628 430 C548 480 488 414 424 430 C354 448 306 514 236 458 C166 402 110 482 58 418 Z" fill="url(#surface)"/>
    <path d="M58 310 C120 252 170 342 240 286 C306 234 358 154 430 202 C494 244 548 246 620 176 C682 116 746 152 828 92" fill="none" stroke="#17335f" stroke-width="6" stroke-linecap="round"/>
    <path d="M98 352 C154 304 204 378 270 332 C336 286 382 226 452 254 C516 280 568 284 646 228 C706 184 756 196 810 152" fill="none" stroke="#ffffff" stroke-width="6" stroke-linecap="round" opacity="0.64"/>
    <path d="M104 414 C168 354 214 432 284 384 C356 336 400 292 468 314 C532 336 592 348 664 304 C724 268 770 276 816 238" fill="none" stroke="#ffffff" stroke-width="6" stroke-linecap="round" opacity="0.46"/>
    <path d="M132 276 L158 250 M218 326 L240 286 M326 290 L358 154 M450 254 L430 202 M570 284 L620 176 M706 184 L746 152" stroke="#0e2d67" stroke-width="3" opacity="0.23"/>

    <g filter="url(#softShadow)">
      <circle cx="158" cy="250" r="21" fill="url(#atomBlue)" stroke="#123b8e" stroke-width="3"/>
      <circle cx="240" cy="286" r="21" fill="url(#atomRed)" stroke="#8f2e17" stroke-width="3"/>
      <circle cx="358" cy="154" r="22" fill="url(#atomGreen)" stroke="#167842" stroke-width="3"/>
      <circle cx="430" cy="202" r="21" fill="url(#atomBlue)" stroke="#123b8e" stroke-width="3"/>
      <circle cx="620" cy="176" r="22" fill="url(#atomRed)" stroke="#8f2e17" stroke-width="3"/>
      <circle cx="746" cy="152" r="21" fill="url(#atomGreen)" stroke="#167842" stroke-width="3"/>
      <circle cx="284" cy="384" r="17" fill="url(#atomBlue)" stroke="#123b8e" stroke-width="3"/>
      <circle cx="664" cy="304" r="17" fill="url(#atomRed)" stroke="#8f2e17" stroke-width="3"/>
    </g>
  </g>

  <g transform="translate(1080 278)" filter="url(#softShadow)">
    <circle cx="0" cy="0" r="54" fill="#ffffff" stroke="#172a60" stroke-width="5"/>
    <circle cx="0" cy="0" r="34" fill="#dff9ff" stroke="#188fd0" stroke-width="5"/>
    <circle cx="0" cy="0" r="10" fill="#ff3b2f"/>
    <path d="M-76 0 H-22 M22 0 H76 M0 -76 V-22 M0 22 V76" stroke="#172a60" stroke-width="6" stroke-linecap="round"/>
  </g>
</svg>
